<?xml version="1.0" encoding="UTF-8"?>
<svg width="64px" height="64px" viewBox="0 0 64 64" version="1.1" xmlns="http://www.w3.org/2000/svg" xmlns:xlink="http://www.w3.org/1999/xlink">
    <!-- Generator: Sketch 59.1 (86144) - https://sketch.com -->
    <title>@1x扇形4</title>
    <desc>Created with Sketch.</desc>
    <g id="页面-1" stroke="none" stroke-width="1" fill="none" fill-rule="evenodd">
        <g id="1.12进件---还款方式说明" transform="translate(-281.000000, -275.000000)" fill="#FFFFFF">
            <g id="编组-8" transform="translate(281.000000, 274.000000)">
                <path d="M61.9998173,0.8 C63.1043868,0.8 63.9998173,1.6954305 63.9998173,2.8 L63.9999435,59.8687735 C62.6778115,59.9557998 61.3439819,60 59.9998287,60 C26.8628383,60 1.63424829e-13,33.137085 1.63424829e-13,0 L0.006,0.799 L61.9998173,0.8 Z" id="形状结合备份" opacity="0.196172805"></path>
                <g id="编组-3" transform="translate(25.000000, 11.000000)" fill-rule="nonzero">
                    <g id="便利店">
                        <path d="M26.6307769,0.378383222 L2.30811344,0.378383222 C1.43991141,0.378383222 0.731042344,1.11001414 0.731042344,2.00422971 L0.731042344,9.88633347 C0.731042344,10.9236235 1.20578952,11.850356 1.94067213,12.4519192 L1.94067213,20.5388797 L1.89189674,20.5388797 L1.89189674,22.8313232 L1.93742044,22.8313232 L1.93742044,25.6245275 C1.93742044,26.6097904 2.66905136,27.419462 3.56326692,27.419462 L25.2455557,27.419462 C26.1397712,27.419462 26.8714022,26.6130421 26.8714022,25.6245275 L26.8714022,12.2990897 C27.508734,11.7007782 27.9086922,10.8390795 27.9086922,9.88308178 L27.9086922,1.65629856 C27.9086922,0.950681185 27.3363942,0.378383222 26.6307769,0.378383222 Z M21.6654417,2.45296334 L25.697541,2.45296334 L25.697541,9.16445763 C25.697541,10.0586732 24.9886719,10.7903041 24.1204699,10.7903041 L23.2002408,10.7903041 C22.4556031,10.7903041 21.8280264,10.2537748 21.6654417,9.53515063 L21.6654417,2.45296334 Z M15.3799192,2.45296334 L19.4542905,2.45296334 L19.4542905,9.16445763 C19.4542905,10.0586732 18.7454214,10.7903041 17.8772194,10.7903041 L16.9569903,10.7903041 C16.0887883,10.7903041 15.3799192,10.0586732 15.3799192,9.16445763 L15.3799192,2.45296334 Z M9.04887297,2.45296334 L13.0809723,2.45296334 L13.0809723,9.16445763 C13.0809723,10.0586732 12.3721032,10.7903041 11.5039012,10.7903041 L10.5836721,10.7903041 C9.83903436,10.7903041 9.21145762,10.2537748 9.04887297,9.53515063 L9.04887297,2.45296334 Z M2.76335045,2.45296334 L6.83772175,2.45296334 L6.83772175,9.16445763 C6.83772175,10.0586732 6.12885268,10.7903041 5.26065066,10.7903041 L4.34042154,10.7903041 C3.47221952,10.7903041 2.76335045,10.0586732 2.76335045,9.16445763 L2.76335045,2.45296334 Z M24.8553525,25.1237667 L3.94696669,25.1237667 L3.94696669,22.8313232 L24.8553525,22.8313232 L24.8553525,25.1237667 Z M24.8553525,20.5388797 L3.94696669,20.5388797 L3.94696669,13.1575366 L5.87196893,13.1575366 C6.69139556,13.1575366 7.44253664,12.8323673 8.00833122,12.2990897 C8.57412579,12.8323673 9.32526687,13.1575366 10.1446935,13.1575366 L12.1152194,13.1575366 C12.967163,13.1575366 13.7443176,12.8063538 14.3166156,12.2373075 C14.8889135,12.8063538 15.6660682,13.1575366 16.5180117,13.1575366 L18.4885377,13.1575366 C19.3079643,13.1575366 20.0591054,12.8323673 20.6249,12.2990897 C21.1906945,12.8323673 21.9418356,13.1575366 22.7612622,13.1575366 L24.7317882,13.1575366 C24.7740602,13.1575366 24.8130805,13.1575366 24.8553525,13.1542849 L24.8553525,20.5388797 L24.8553525,20.5388797 Z" id="形状"></path>
                    </g>
                </g>
            </g>
        </g>
    </g>
</svg>