<?xml version="1.0" encoding="UTF-8"?>
<svg width="64px" height="64px" viewBox="0 0 64 64" version="1.1" xmlns="http://www.w3.org/2000/svg" xmlns:xlink="http://www.w3.org/1999/xlink">
    <!-- Generator: Sketch 59.1 (86144) - https://sketch.com -->
    <title>@1x扇形2</title>
    <desc>Created with Sketch.</desc>
    <g id="页面-1" stroke="none" stroke-width="1" fill="none" fill-rule="evenodd">
        <g id="1.12进件---还款方式说明" transform="translate(-281.000000, -156.000000)" fill="#FFFFFF">
            <g id="编组-7" transform="translate(281.000000, 155.000000)">
                <path d="M61.9998173,0.8 C63.1043868,0.8 63.9998173,1.6954305 63.9998173,2.8 L63.9999435,59.8687735 C62.6778115,59.9557998 61.3439819,60 59.9998287,60 C26.8628383,60 1.63424829e-13,33.137085 1.63424829e-13,0 L0.006,0.799 L61.9998173,0.8 Z" id="形状结合备份" opacity="0.196172805"></path>
                <g id="编组-2" transform="translate(25.000000, 14.000000)" fill-rule="nonzero">
                    <g id="atm">
                        <path d="M23.1376596,6.36130469 L23.1376596,16.6516392 L23.1376596,16.6516392 C23.1376596,17.409397 22.5233685,18.0236849 21.7656075,18.0236849 L6.67312759,18.0236849 L6.67312756,18.0236849 C5.91536983,18.0236849 5.30108188,17.4094002 5.30108188,16.6516392 L5.30108188,6.36130469 L5.30108188,6.36130459 C5.30108188,5.98242412 5.60822457,5.67528325 5.98710311,5.67528325 L7.35914879,5.67528325 L7.35914876,5.67528325 C7.73802923,5.67528325 8.04516999,5.98242605 8.04516999,6.36130459 L8.04516999,15.2795838 L20.3935715,15.2795838 L20.3935715,6.36130459 L20.3935715,6.36130448 C20.3935715,5.98242401 20.7007141,5.67528325 21.0795927,5.67528325 C21.0795927,5.67528325 21.0795927,5.67528325 21.0795927,5.67528325 L22.4516384,5.67528325 L22.4516383,5.67528325 C22.8305188,5.67528325 23.1376596,5.98242594 23.1376596,6.36130448 C23.1376596,6.36130448 23.1376596,6.36130448 23.1376596,6.36130448 L23.1376596,6.36130469 Z M24.5096989,9.10539283 L24.5096989,7.73334716 L24.5096989,7.73334723 C24.5096988,7.35446676 24.8168416,7.04732599 25.1957201,7.04732599 C25.1957201,7.04732599 25.1957202,7.04732599 25.1957202,7.04732599 L25.1957202,2.93119217 L3.24299573,2.93119217 L3.24299573,7.04732599 L3.2429957,7.04732599 C3.62187617,7.04732598 3.92901693,7.35446868 3.92901693,7.73334723 C3.92901693,7.73334724 3.92901693,7.73334725 3.92901693,7.73334726 L3.92901693,9.10539294 L3.92901693,9.10539297 C3.92901693,9.48427344 3.62187424,9.7914142 3.2429957,9.7914142 C3.24299569,9.7914142 3.24299568,9.7914142 3.24299567,9.7914142 L1.87094999,9.7914142 L1.87094993,9.7914142 C1.11319221,9.7914142 0.498904252,9.17712946 0.498904252,8.41936852 C0.498904252,8.41936852 0.498904252,8.41936852 0.498904252,8.41936852 L0.498904252,1.55915621 L0.498904252,1.559156 C0.498904252,0.801398271 1.11318899,0.187110319 1.87094993,0.187110319 L26.5677529,0.187110319 L26.5677528,0.187110319 C27.3255105,0.187110319 27.9397985,0.801395056 27.9397985,1.559156 L27.9397985,8.41936832 L27.9397985,8.41936832 C27.9397985,9.17712604 27.3255137,9.7914142 26.5677528,9.7914142 L25.1957071,9.7914142 L25.1957071,9.7914142 C24.8168266,9.7914142 24.5096859,9.4842713 24.5096859,9.10539276 C24.5096859,9.10539275 24.5096859,9.10539274 24.5096859,9.10539273 L24.5096989,9.10539283 Z M5.9185052,20.081739 L22.5202557,20.081739 L22.5202556,20.081739 C22.8612484,20.081739 23.1376757,20.3581673 23.1376757,20.699159 C23.1376757,20.699159 23.1376757,20.699159 23.1376757,20.699159 L23.1376757,22.208407 L23.1376757,22.208407 C23.1376757,22.5493998 22.8612474,22.8258271 22.5202556,22.8258271 C22.5202556,22.8258271 22.5202556,22.8258271 22.5202556,22.8258271 L5.91850517,22.8258271 L5.91850514,22.8258271 C5.5775124,22.8258271 5.30108507,22.5493988 5.30108507,22.208407 C5.30108507,22.208407 5.30108507,22.208407 5.30108507,22.208407 L5.30108507,20.699159 L5.30108507,20.6991591 C5.30108507,20.3581664 5.57751336,20.081739 5.91850514,20.081739 C5.91850514,20.081739 5.91850514,20.081739 5.91850514,20.081739 L5.9185052,20.081739 Z M18.4521327,8.63203744 L18.4521326,8.63203768 C17.1995352,10.9697573 14.2890169,11.8494072 11.951278,10.5968259 C11.0499669,10.1138844 10.3263442,9.35585016 9.88576348,8.43309335 L9.88576371,8.43309386 C9.81201417,8.27296693 9.74943639,8.10792572 9.69847962,7.9391578 L9.69847961,7.93915776 C9.58481579,7.57772906 9.78566833,7.19259078 10.1470964,7.0789276 C10.2137048,7.05798027 10.2831205,7.04732886 10.3529449,7.04732886 L11.863566,7.04732886 L11.863566,7.04732886 C12.1095677,7.04726752 12.3367703,7.17893004 12.4590323,7.39239917 C12.5633078,7.57419497 12.660037,7.71002739 12.7485338,7.80126953 L12.7485337,7.80126934 C13.135357,8.19727679 13.6657819,8.42018473 14.2193665,8.41937436 C14.8004264,8.41937436 15.3259216,8.17858054 15.6998016,7.79097901 C15.7862404,7.70179621 15.8795393,7.56939369 15.9796987,7.39308714 L15.9796987,7.3930871 C16.1019077,7.17914172 16.329464,7.04716464 16.5758532,7.04732886 L18.075499,7.04732886 L18.075499,7.04732886 C18.4543795,7.04732886 18.761501,7.35449609 18.761501,7.7333756 C18.761501,7.80462716 18.7503965,7.87544331 18.7285935,7.94327688 C18.6366664,8.23072033 18.5440533,8.45985167 18.4521266,8.63204434 L18.4521327,8.63203744 Z" id="形状"></path>
                    </g>
                </g>
            </g>
        </g>
    </g>
</svg>