<?xml version="1.0" encoding="UTF-8"?>
<svg width="64px" height="64px" viewBox="0 0 64 64" version="1.1" xmlns="http://www.w3.org/2000/svg" xmlns:xlink="http://www.w3.org/1999/xlink">
    <!-- Generator: Sketch 59.1 (86144) - https://sketch.com -->
    <title>@1x扇形3</title>
    <desc>Created with Sketch.</desc>
    <g id="页面-1" stroke="none" stroke-width="1" fill="none" fill-rule="evenodd">
        <g id="1.12进件---还款方式说明" transform="translate(-110.000000, -275.000000)" fill="#FFFFFF">
            <g id="编组-9" transform="translate(110.000000, 274.000000)">
                <path d="M61.9998173,0.8 C63.1043868,0.8 63.9998173,1.6954305 63.9998173,2.8 L63.9999435,59.8687735 C62.6778115,59.9557998 61.3439819,60 59.9998287,60 C26.8628383,60 1.63424829e-13,33.137085 1.63424829e-13,0 L0.006,0.799 L61.9998173,0.8 Z" id="形状结合" opacity="0.196172805"></path>
                <g id="编组-4" transform="translate(29.000000, 11.000000)" fill-rule="nonzero">
                    <g id="手机">
                        <path d="M1.49331429,0.120604814 C1.00513466,0.120604814 0.609384647,0.516354828 0.609384647,1.00453441 L0.609384647,26.9822505 C0.609384647,27.4704302 1.00513466,27.8661803 1.49331425,27.8661803 L20.7924438,27.8661803 C21.2806234,27.8661803 21.6763734,27.4704302 21.6763734,26.9822507 L21.6763734,1.00453455 C21.6763734,0.516354961 21.2806234,0.120604814 20.7924438,0.120604814 L1.49331429,0.120604814 Z M19.1428791,2.78914767 L19.1428791,19.7891477 L3.14287909,19.7891477 L3.14287909,2.78914767 L19.1428791,2.78914767 Z M2.96653029,25.5090345 L2.96653029,21.4576905 L19.3192279,21.4576905 L19.3192279,25.5090345 L2.96653029,25.5090345 Z" id="形状"></path>
                    </g>
                </g>
            </g>
        </g>
    </g>
</svg>