<?xml version="1.0" encoding="UTF-8"?>
<svg width="64px" height="64px" viewBox="0 0 64 64" version="1.1" xmlns="http://www.w3.org/2000/svg" xmlns:xlink="http://www.w3.org/1999/xlink">
    <!-- Generator: Sketch 59.1 (86144) - https://sketch.com -->
    <title>@1x扇形1</title>
    <desc>Created with Sketch.</desc>
    <g id="页面-1" stroke="none" stroke-width="1" fill="none" fill-rule="evenodd">
        <g id="1.12进件---还款方式说明" transform="translate(-110.000000, -156.000000)" fill="#FFFFFF">
            <g id="编组-10" transform="translate(110.000000, 155.000000)">
                <g id="编组-5">
                    <path d="M61.9998173,0.8 C63.1043868,0.8 63.9998173,1.6954305 63.9998173,2.8 L63.9999435,59.8687735 C62.6778115,59.9557998 61.3439819,60 59.9998287,60 C26.8628383,60 1.63424829e-13,33.137085 1.63424829e-13,0 L0.006,0.799 L61.9998173,0.8 Z" id="形状结合备份-2" opacity="0.196172805"></path>
                    <g id="编组-6" transform="translate(28.000000, 12.000000)" fill-rule="nonzero">
                        <g id="编组">
                            <g id="银行">
                                <path d="M0.153246536,6.82911413 L0.153246536,6.11595843 C0.153246536,5.69625436 0.450110393,5.23901577 0.818631042,5.07864104 L11.2464005,0.516491894 C11.6217456,0.352704939 12.2120611,0.356117167 12.5771695,0.516491894 L23.004939,5.07864104 C23.3802841,5.242428 23.6703235,5.70307881 23.6703235,6.11595843 L23.6703235,6.82911413 C23.6703235,7.2488182 23.3427496,7.57639211 22.9401067,7.57639211 L0.880051151,7.57639211 C0.484232675,7.57639211 0.153246536,7.24199375 0.153246536,6.82911413 Z M17.7910543,10.5040839 C17.7910543,10.1048532 18.1049793,9.78069155 18.5315078,9.78069155 L19.9885293,9.78069155 C20.3979967,9.78069155 20.7289828,10.0980288 20.7289828,10.5040839 L20.7289828,20.0822086 C20.7289828,20.4814393 20.4150578,20.805601 19.9885293,20.805601 L18.5315078,20.805601 C18.1220404,20.805601 17.7910543,20.4882638 17.7910543,20.0822086 L17.7910543,10.5040839 Z M10.4411147,10.5040839 C10.4411147,10.1048532 10.7550397,9.78069155 11.1815682,9.78069155 L12.6385896,9.78069155 C13.048057,9.78069155 13.3790432,10.0980288 13.3790432,10.5040839 L13.3790432,20.0822086 C13.3790432,20.4814393 13.0651182,20.805601 12.6385896,20.805601 L11.1815682,20.805601 C10.7721008,20.805601 10.4411147,20.4882638 10.4411147,20.0822086 L10.4411147,10.5040839 Z M3.09117505,10.5040839 C3.09117505,10.1048532 3.40510004,9.78069155 3.83162857,9.78069155 L5.28865003,9.78069155 C5.69811742,9.78069155 6.02910356,10.0980288 6.02910356,10.5040839 L6.02910356,20.0822086 C6.02910356,20.4814393 5.71517856,20.805601 5.28865003,20.805601 L3.83162857,20.805601 C3.42216119,20.805601 3.09117505,20.4882638 3.09117505,20.0822086 L3.09117505,10.5040839 L3.09117505,10.5040839 Z M0.153246536,23.7571784 C0.153246536,23.347711 0.484232675,23.0133126 0.883463379,23.0133126 L22.9435189,23.0133126 C23.3461619,23.0133126 23.6737358,23.3511232 23.6737358,23.7571784 L23.6737358,25.9444167 C23.6737358,26.3538841 23.3427496,26.6882825 22.9435189,26.6882825 L0.880051151,26.6882825 C0.477408219,26.6882825 0.149834308,26.3504719 0.149834308,25.9444167 L0.149834308,23.7571784 L0.153246536,23.7571784 Z" id="形状"></path>
                            </g>
                        </g>
                    </g>
                </g>
            </g>
        </g>
    </g>
</svg>